# xmcd CD database file
#
# Track frame offsets:
#	150
#	37279
#	60311
#	88240
#	122231
#	152616
#
# Disc length: 2335 seconds
#
# Revision: 0
# Processed by: cddbd v1.5.2PL0 Copyright (c) Steve Scherf et al.
# Submitted via: CDex 1.70beta2
#
DISCID=4c091d06
DTITLE=Jimmy Smith - Sit On It!
DYEAR=1976
DGENRE=Jazz
TTITLE0=Give Up The Booty
TTITLE1=Can't Hide Love
TTITLE2=Cherry Stones
TTITLE3=My Place In Space
TTITLE4=Born To Groove/From You To Me To You
TTITLE5=Slippery Hips
EXTD=YEAR: 1976
EXTT0=
EXTT1=
EXTT2=
EXTT3=
EXTT4=
EXTT5=
PLAYORDER=
